<?xml version="1.0" encoding="UTF-8"?>
<svg xmlns="http://www.w3.org/2000/svg" xmlns:xlink="http://www.w3.org/1999/xlink" width="72px" height="71px" viewBox="0 0 72 71" version="1.1">
<g id="surface1">
<path style=" stroke:none;fill-rule:evenodd;fill:rgb(100%,100%,100%);fill-opacity:1;" d="M 35.894531 0 C 16.046875 0 0 16.269531 0 36.398438 C 0 52.492188 10.28125 66.109375 24.542969 70.929688 C 26.324219 71.292969 26.980469 70.148438 26.980469 69.183594 C 26.980469 68.339844 26.917969 65.449219 26.917969 62.433594 C 16.933594 64.605469 14.855469 58.09375 14.855469 58.09375 C 13.25 53.875 10.875 52.792969 10.875 52.792969 C 7.605469 50.5625 11.113281 50.5625 11.113281 50.5625 C 14.738281 50.804688 16.640625 54.296875 16.640625 54.296875 C 19.847656 59.84375 25.019531 58.277344 27.097656 57.3125 C 27.394531 54.960938 28.347656 53.335938 29.355469 52.429688 C 21.394531 51.585938 13.015625 48.453125 13.015625 34.472656 C 13.015625 30.492188 14.441406 27.238281 16.699219 24.707031 C 16.339844 23.804688 15.09375 20.066406 17.054688 15.066406 C 17.054688 15.066406 20.085938 14.101562 26.917969 18.800781 C 29.84375 18.003906 32.863281 17.601562 35.894531 17.597656 C 38.921875 17.597656 42.011719 18.019531 44.867188 18.800781 C 51.699219 14.101562 54.730469 15.066406 54.730469 15.066406 C 56.691406 20.066406 55.441406 23.804688 55.085938 24.707031 C 57.40625 27.238281 58.769531 30.492188 58.769531 34.472656 C 58.769531 48.453125 50.394531 51.527344 42.371094 52.429688 C 43.675781 53.574219 44.804688 55.746094 44.804688 59.179688 C 44.804688 64.0625 44.746094 67.980469 44.746094 69.183594 C 44.746094 70.148438 45.402344 71.292969 47.183594 70.933594 C 61.445312 66.109375 71.726562 52.492188 71.726562 36.398438 C 71.785156 16.269531 55.679688 0 35.894531 0 Z M 35.894531 0 "/>
</g>
</svg>
